<svg width="16" height="15" viewBox="0 0 16 15" fill="none" xmlns="http://www.w3.org/2000/svg">
<g clip-path="url(#clip0_176_133)">
<path d="M7.3512 1.1966C7.38041 1.13757 7.42555 1.08788 7.4815 1.05315C7.53746 1.01841 7.60201 1 7.66787 1C7.73373 1 7.79828 1.01841 7.85423 1.05315C7.91019 1.08788 7.95532 1.13757 7.98453 1.1966L9.52453 4.31593C9.62598 4.52124 9.77574 4.69887 9.96095 4.83356C10.1462 4.96826 10.3613 5.056 10.5879 5.08926L14.0319 5.59326C14.0971 5.60272 14.1584 5.63024 14.2089 5.67273C14.2593 5.71521 14.2968 5.77096 14.3172 5.83367C14.3376 5.89637 14.34 5.96353 14.3243 6.02755C14.3085 6.09157 14.2751 6.1499 14.2279 6.19593L11.7372 8.62126C11.5729 8.78133 11.45 8.97892 11.3791 9.19702C11.3081 9.41511 11.2912 9.64719 11.3299 9.87326L11.9179 13.2999C11.9294 13.3652 11.9223 13.4323 11.8975 13.4937C11.8727 13.5551 11.8312 13.6083 11.7776 13.6473C11.724 13.6862 11.6605 13.7093 11.5944 13.7139C11.5284 13.7185 11.4623 13.7044 11.4039 13.6733L8.3252 12.0546C8.12234 11.9481 7.89665 11.8924 7.66753 11.8924C7.43841 11.8924 7.21272 11.9481 7.00987 12.0546L3.93187 13.6733C3.87342 13.7042 3.80746 13.7181 3.7415 13.7134C3.67554 13.7087 3.61221 13.6856 3.55873 13.6467C3.50525 13.6078 3.46375 13.5547 3.43897 13.4934C3.41419 13.4321 3.4071 13.3651 3.41853 13.2999L4.00587 9.87393C4.04466 9.64775 4.02786 9.41553 3.95689 9.19729C3.88593 8.97906 3.76294 8.78137 3.59853 8.62126L1.10787 6.1966C1.06026 6.15062 1.02653 6.09219 1.01051 6.02798C0.994488 5.96376 0.996824 5.89634 1.01725 5.83339C1.03768 5.77044 1.07538 5.71449 1.12605 5.67192C1.17672 5.62935 1.23834 5.60186 1.30387 5.5926L4.7472 5.08926C4.97404 5.05626 5.18946 4.96863 5.37492 4.83392C5.56039 4.69921 5.71034 4.52144 5.81187 4.31593L7.3512 1.1966Z" stroke="black" stroke-width="1.33333" stroke-linecap="round" stroke-linejoin="round"/>
</g>
<defs>
<clipPath id="clip0_176_133">
<rect width="16" height="14.7147" fill="white"/>
</clipPath>
</defs>
</svg>
