<svg width="16" height="16" viewBox="0 0 16 16" fill="none" xmlns="http://www.w3.org/2000/svg">
<path d="M5.33268 14.6668C5.70087 14.6668 5.99935 14.3684 5.99935 14.0002C5.99935 13.632 5.70087 13.3335 5.33268 13.3335C4.96449 13.3335 4.66602 13.632 4.66602 14.0002C4.66602 14.3684 4.96449 14.6668 5.33268 14.6668Z" stroke="black" stroke-width="1.33333" stroke-linecap="round" stroke-linejoin="round"/>
<path d="M12.6667 14.6668C13.0349 14.6668 13.3333 14.3684 13.3333 14.0002C13.3333 13.632 13.0349 13.3335 12.6667 13.3335C12.2985 13.3335 12 13.632 12 14.0002C12 14.3684 12.2985 14.6668 12.6667 14.6668Z" stroke="black" stroke-width="1.33333" stroke-linecap="round" stroke-linejoin="round"/>
<path d="M1.36719 1.3667H2.70052L4.47385 9.6467C4.53891 9.94994 4.70763 10.221 4.951 10.4133C5.19436 10.6055 5.49712 10.7069 5.80719 10.7H12.3272C12.6306 10.6995 12.9248 10.5956 13.1612 10.4053C13.3976 10.215 13.5619 9.94972 13.6272 9.65336L14.7272 4.70003H3.41385" stroke="black" stroke-width="1.33333" stroke-linecap="round" stroke-linejoin="round"/>
</svg>
