<svg width="44" height="44" viewBox="0 0 44 44" fill="none" xmlns="http://www.w3.org/2000/svg">
<mask id="path-1-inside-1_125_4989" fill="white">
<path d="M0 22C0 9.84974 9.84974 0 22 0V0C34.1503 0 44 9.84974 44 22V22C44 34.1503 34.1503 44 22 44V44C9.84974 44 0 34.1503 0 22V22Z"/>
</mask>
<path d="M0 22C0 9.84974 9.84974 0 22 0V0C34.1503 0 44 9.84974 44 22V22C44 34.1503 34.1503 44 22 44V44C9.84974 44 0 34.1503 0 22V22Z" fill="white" fill-opacity="0.5"/>
<path d="M0 22M44 22M44 22M0 22M22 0M44 22M22 44M0 22M22 44V42C10.9543 42 2 33.0457 2 22H0H-2C-2 35.2548 8.74517 46 22 46V44ZM44 22H42C42 33.0457 33.0457 42 22 42V44V46C35.2548 46 46 35.2548 46 22H44ZM22 0V2C33.0457 2 42 10.9543 42 22H44H46C46 8.74517 35.2548 -2 22 -2V0ZM22 0V-2C8.74517 -2 -2 8.74517 -2 22H0H2C2 10.9543 10.9543 2 22 2V0Z" fill="black" fill-opacity="0.6" mask="url(#path-1-inside-1_125_4989)"/>
<path d="M21.625 26.5L17.125 22L21.625 17.5M17.75 22H26.875" stroke="black" stroke-opacity="0.7" stroke-width="1.5" stroke-linecap="round" stroke-linejoin="round"/>
</svg>
