<svg width="64" height="64" viewBox="0 0 64 64" fill="none" xmlns="http://www.w3.org/2000/svg">
<path d="M0 32C0 14.3269 14.3269 0 32 0C49.6731 0 64 14.3269 64 32C64 49.6731 49.6731 64 32 64C14.3269 64 0 49.6731 0 32Z" fill="black" fill-opacity="0.1"/>
<path d="M18.666 28.6669C18.666 27.1832 19.1161 25.7343 19.9569 24.5118C20.7976 23.2892 21.9894 22.3504 23.3748 21.8194C24.7603 21.2884 26.2742 21.1901 27.7167 21.5376C29.1592 21.8851 30.4623 22.6619 31.454 23.7655C31.5239 23.8402 31.6083 23.8998 31.7021 23.9405C31.7959 23.9812 31.8971 24.0022 31.9993 24.0022C32.1016 24.0022 32.2028 23.9812 32.2966 23.9405C32.3904 23.8998 32.4748 23.8402 32.5447 23.7655C33.5333 22.6547 34.8367 21.8714 36.2815 21.5197C37.7263 21.168 39.244 21.2647 40.6325 21.7969C42.021 22.329 43.2145 23.2715 44.0542 24.4988C44.8938 25.726 45.3398 27.1799 45.3327 28.6669C45.3327 31.7202 43.3327 34.0002 41.3327 36.0002L34.01 43.0842C33.7616 43.3696 33.4553 43.5988 33.1114 43.7566C32.7676 43.9145 32.3941 43.9973 32.0157 43.9997C31.6374 44.0021 31.2629 43.924 30.9171 43.7705C30.5712 43.617 30.2621 43.3917 30.01 43.1095L22.666 36.0002C20.666 34.0002 18.666 31.7335 18.666 28.6669Z" stroke="#546A2A" stroke-width="2.66667" stroke-linecap="round" stroke-linejoin="round"/>
</svg>
