<svg width="64" height="64" viewBox="0 0 64 64" fill="none" xmlns="http://www.w3.org/2000/svg">
<path d="M0 32C0 14.3269 14.3269 0 32 0C49.6731 0 64 14.3269 64 32C64 49.6731 49.6731 64 32 64C14.3269 64 0 49.6731 0 32Z" fill="black" fill-opacity="0.1"/>
<path d="M36.6357 33.1865L38.6557 44.5545C38.6783 44.6884 38.6595 44.826 38.6018 44.9489C38.5442 45.0718 38.4503 45.1741 38.3329 45.2423C38.2155 45.3104 38.0801 45.341 37.9447 45.3301C37.8094 45.3192 37.6807 45.2673 37.5757 45.1812L32.8023 41.5985C32.5719 41.4264 32.292 41.3334 32.0043 41.3334C31.7167 41.3334 31.4368 41.4264 31.2063 41.5985L26.425 45.1799C26.3201 45.2658 26.1915 45.3177 26.0563 45.3286C25.9212 45.3395 25.7859 45.309 25.6686 45.241C25.5512 45.1731 25.4574 45.071 25.3996 44.9483C25.3418 44.8256 25.3227 44.6883 25.345 44.5545L27.3637 33.1865" stroke="#546A2A" stroke-width="2.66667" stroke-linecap="round" stroke-linejoin="round"/>
<path d="M32 34.6665C36.4183 34.6665 40 31.0848 40 26.6665C40 22.2482 36.4183 18.6665 32 18.6665C27.5817 18.6665 24 22.2482 24 26.6665C24 31.0848 27.5817 34.6665 32 34.6665Z" stroke="#546A2A" stroke-width="2.66667" stroke-linecap="round" stroke-linejoin="round"/>
</svg>
