<svg width="64" height="64" viewBox="0 0 64 64" fill="none" xmlns="http://www.w3.org/2000/svg">
<path d="M0 32C0 14.3269 14.3269 0 32 0C49.6731 0 64 14.3269 64 32C64 49.6731 49.6731 64 32 64C14.3269 64 0 49.6731 0 32Z" fill="black" fill-opacity="0.1"/>
<path d="M34.666 40.0002V24.0002C34.666 23.2929 34.3851 22.6146 33.885 22.1145C33.3849 21.6144 32.7066 21.3335 31.9993 21.3335H21.3327C20.6254 21.3335 19.9472 21.6144 19.4471 22.1145C18.947 22.6146 18.666 23.2929 18.666 24.0002V38.6668C18.666 39.0205 18.8065 39.3596 19.0565 39.6096C19.3066 39.8597 19.6457 40.0002 19.9993 40.0002H22.666" stroke="#546A2A" stroke-width="2.66667" stroke-linecap="round" stroke-linejoin="round"/>
<path d="M36 40H28" stroke="#546A2A" stroke-width="2.66667" stroke-linecap="round" stroke-linejoin="round"/>
<path d="M41.3327 39.9998H43.9993C44.353 39.9998 44.6921 39.8594 44.9422 39.6093C45.1922 39.3593 45.3327 39.0201 45.3327 38.6665V33.7998C45.3321 33.4973 45.2287 33.2039 45.0394 32.9678L40.3993 27.1678C40.2746 27.0117 40.1164 26.8855 39.9364 26.7988C39.7564 26.712 39.5592 26.6668 39.3593 26.6665H34.666" stroke="#546A2A" stroke-width="2.66667" stroke-linecap="round" stroke-linejoin="round"/>
<path d="M38.6667 42.6668C40.1394 42.6668 41.3333 41.4729 41.3333 40.0002C41.3333 38.5274 40.1394 37.3335 38.6667 37.3335C37.1939 37.3335 36 38.5274 36 40.0002C36 41.4729 37.1939 42.6668 38.6667 42.6668Z" stroke="#546A2A" stroke-width="2.66667" stroke-linecap="round" stroke-linejoin="round"/>
<path d="M25.3327 42.6668C26.8054 42.6668 27.9993 41.4729 27.9993 40.0002C27.9993 38.5274 26.8054 37.3335 25.3327 37.3335C23.8599 37.3335 22.666 38.5274 22.666 40.0002C22.666 41.4729 23.8599 42.6668 25.3327 42.6668Z" stroke="#546A2A" stroke-width="2.66667" stroke-linecap="round" stroke-linejoin="round"/>
</svg>
