<svg width="64" height="64" viewBox="0 0 64 64" fill="none" xmlns="http://www.w3.org/2000/svg">
<path d="M0 32C0 14.3269 14.3269 0 32 0C49.6731 0 64 14.3269 64 32C64 49.6731 49.6731 64 32 64C14.3269 64 0 49.6731 0 32Z" fill="black" fill-opacity="0.1"/>
<path d="M30.6663 42.6665C28.3251 42.6736 26.0667 41.8005 24.339 40.2204C22.6114 38.6403 21.5407 36.4686 21.3393 34.136C21.1379 31.8034 21.8206 29.4803 23.2518 27.6275C24.6831 25.7747 26.7585 24.5274 29.0663 24.1332C36.6663 22.6665 38.6663 21.9732 41.333 18.6665C42.6663 21.3332 43.9996 24.2398 43.9996 29.3332C43.9996 36.6665 37.6263 42.6665 30.6663 42.6665Z" stroke="#546A2A" stroke-width="2.66667" stroke-linecap="round" stroke-linejoin="round"/>
<path d="M18.666 44C18.666 40 21.1327 36.8533 25.4393 36C28.666 35.36 31.9993 33.3333 33.3327 32" stroke="#546A2A" stroke-width="2.66667" stroke-linecap="round" stroke-linejoin="round"/>
</svg>
