<svg width="36" height="36" viewBox="0 0 36 36" fill="none" xmlns="http://www.w3.org/2000/svg">
<mask id="path-1-inside-1_30_2850" fill="white">
<path d="M0 0H36V36H0V0Z"/>
</mask>
<path d="M0 0H36V36H0V0Z" fill="white"/>
<path d="M0 0V-1H-1V0H0ZM36 0H37V-1H36V0ZM36 36V37H37V36H36ZM0 36H-1V37H0V36ZM0 0V1H36V0V-1H0V0ZM36 0H35V36H36H37V0H36ZM36 36V35H0V36V37H36V36ZM0 36H1V0H0H-1V36H0Z" fill="black" mask="url(#path-1-inside-1_30_2850)"/>
<path d="M13.334 18H22.6673" stroke="black" stroke-width="1.33333" stroke-linecap="round" stroke-linejoin="round"/>
<path d="M18 13.3333V22.6666" stroke="black" stroke-width="1.33333" stroke-linecap="round" stroke-linejoin="round"/>
</svg>
