<svg width="16" height="16" viewBox="0 0 16 16" fill="none" xmlns="http://www.w3.org/2000/svg">
<path d="M9.22198 11.0453C9.35967 11.1085 9.51478 11.1229 9.66178 11.0862C9.80877 11.0495 9.93887 10.9638 10.0307 10.8433L10.2673 10.5333C10.3915 10.3677 10.5526 10.2333 10.7377 10.1407C10.9228 10.0481 11.127 9.99992 11.334 9.99992H13.334C13.6876 9.99992 14.0267 10.1404 14.2768 10.3904C14.5268 10.6405 14.6673 10.9796 14.6673 11.3333V13.3333C14.6673 13.6869 14.5268 14.026 14.2768 14.2761C14.0267 14.5261 13.6876 14.6666 13.334 14.6666C10.1514 14.6666 7.09914 13.4023 4.8487 11.1519C2.59827 8.90143 1.33398 5.84918 1.33398 2.66659C1.33398 2.31296 1.47446 1.97382 1.72451 1.72378C1.97456 1.47373 2.3137 1.33325 2.66732 1.33325H4.66732C5.02094 1.33325 5.36008 1.47373 5.61013 1.72378C5.86017 1.97382 6.00065 2.31296 6.00065 2.66659V4.66659C6.00065 4.87358 5.95246 5.07773 5.85989 5.26287C5.76732 5.44801 5.63291 5.60906 5.46732 5.73325L5.15532 5.96725C5.03293 6.0607 4.94666 6.19364 4.91118 6.34349C4.87569 6.49333 4.89317 6.65084 4.96065 6.78925C5.87177 8.63983 7.37027 10.1364 9.22198 11.0453Z" stroke="black" stroke-width="1.33333" stroke-linecap="round" stroke-linejoin="round"/>
</svg>
